<svg xmlns="http://www.w3.org/2000/svg" xmlns:xlink="http://www.w3.org/1999/xlink" width="1980" zoomAndPan="magnify" viewBox="0 0 1485 1484.999939" height="1980" preserveAspectRatio="xMidYMid meet" version="1.0"><path fill="#f3f4f6" d="M 0 483.890625 C 163.058594 324.949219 326.097656 166.03125 489.15625 7.089844 L 1491.820312 7.089844 L 1491.820312 1004.453125 L 1013.367188 1484.671875 L 119.75 1484.671875 C 107.496094 1483.46875 76.90625 1478.828125 47.523438 1455.484375 C 16.625 1430.914062 5.378906 1400.230469 1.765625 1388.597656 C 1.183594 1087.027344 0.601562 785.460938 0 483.890625 Z M 0 483.890625 " fill-opacity="1" fill-rule="nonzero"/><path fill="#0052ff" d="M 248.628906 499.488281 C 369.074219 382.085938 489.523438 264.667969 609.972656 147.269531 L 1350.667969 147.269531 L 1350.667969 884.042969 L 997.207031 1238.785156 C 995.847656 992.136719 994.507812 745.492188 993.167969 498.847656 C 744.988281 499.058594 496.808594 499.273438 248.628906 499.488281 Z M 248.628906 499.488281 " fill-opacity="1" fill-rule="nonzero"/></svg>